# xmcd
#
# Track frame offsets: 
#        182
#        21615
#        45867
#        58342
#        80002
#        93397
#        114577
#
# Disc length: 1810 seconds
#
# Revision: 1
# Processed by: cddbd v1.5.2PL0 Copyright (c) Steve Scherf et al.
# Submitted via: ExactAudioCopy v1.0b1
#
DISCID=59071007
DTITLE=Roberta Flack - The Classics Atlantic PRCD 4269-2
DYEAR=1991
DGENRE=R&B
TTITLE0=Set The Night To Music
TTITLE1=The First Time Ever I Saw Your Face
TTITLE2=Where Is The Love
TTITLE3=Killing Me Softly With His Song
TTITLE4=Feel Like Makin' Love
TTITLE5=The Closer I Get To You
TTITLE6=Set The Night To Music
EXTD=
EXTT0=
EXTT1=
EXTT2=
EXTT3=
EXTT4=
EXTT5=
EXTT6=
PLAYORDER=
